<svg version="1.1" id="Layer_1" xmlns="http://www.w3.org/2000/svg" x="0" y="0" viewBox="0 0 740 444" xml:space="preserve"><style>.st0{fill:none}.st5,.st6,.st7,.st8{fill:none;stroke:#fff;stroke-width:8.5384;stroke-linecap:round}.st6,.st7,.st8{stroke:#d7d7d7}.st7,.st8{stroke:#f2f2f2}.st8{stroke:#f8f8f8}</style><g id="Page-1"><g id="___fog-desktop-copy" transform="translate(0 -44)"><path id="Rectangle" class="st0" d="M188 52h380v400H188z"/><linearGradient id="Path_13_" gradientUnits="userSpaceOnUse" x1="-311" y1="645.15" x2="-311" y2="645.06" gradientTransform="matrix(636.3707 0 0 -148.5513 198291.05 96191.31)"><stop offset=".1" stop-color="#fff" stop-opacity=".6"/><stop offset="1" stop-color="#fff" stop-opacity="0"/></linearGradient><path id="Path" d="M55.4 436.2V354c0-22.4 12.6-43.1 32.8-52.8 22.4-10.8 59.9-18 122.7-10.4 147.1 17.9 118.4 44.7 238.4 16.1s219.8-17.9 235 33.1 2.5 96.2 2.5 96.2H55.4z" fill="url(#Path_13_)"/><linearGradient id="Path_14_" gradientUnits="userSpaceOnUse" x1="-310.93" y1="645.14" x2="-310.94" y2="645.03" gradientTransform="matrix(559.4241 0 0 -146.0715 174408.06 94543.5)"><stop offset=".1" stop-color="#fff" stop-opacity=".6"/><stop offset="1" stop-color="#fff" stop-opacity="0"/></linearGradient><path id="Path_1_" d="M181.2 390.3v-85.9s-23.6-63.9 119.6-60C444 248.3 461 289.3 525.1 272s195.2-41.9 205.6-16.2c10.4 25.7 8.3 42.1 8.3 42.1v92.3l-557.8.1z" fill="url(#Path_14_)"/><linearGradient id="Path_15_" gradientUnits="userSpaceOnUse" x1="-310.99" y1="645.14" x2="-311" y2="645.05" gradientTransform="matrix(632.137 0 0 -147.5153 196932.23 95424.05)"><stop offset=".1" stop-color="#fff" stop-opacity=".6"/><stop offset="1" stop-color="#fff" stop-opacity="0"/></linearGradient><path id="Path_2_" d="M17.5 338.1v-63.8c0-38.9 27.4-72.6 65.5-80 19.3-3.7 44.2-5 76.2-1.8 128.1 12.7 133.4 41.7 207.2 26.3s175.1-41.8 230.8-17.2 52.4 50.5 52.4 50.5v86.1H17.5v-.1z" fill="url(#Path_15_)"/><linearGradient id="Path_16_" gradientUnits="userSpaceOnUse" x1="-310.98" y1="645.11" x2="-310.99" y2="645.03" gradientTransform="matrix(609.7771 0 0 -144.6002 190025.88 93464.5)"><stop offset=".1" stop-color="#fff" stop-opacity=".6"/><stop offset="1" stop-color="#fff" stop-opacity="0"/></linearGradient><path id="Path_3_" d="M87.5 256.5v-95.1s-5.1-49.1 70.1-43.8c75.2 5.3 105.4 45.5 173 29.7s105.2-41.7 177.6-22.3 128.3 5.1 160.3 7.3c32 2.3 28.6 25.2 28.6 33.4s-5.8 89-5 96.1l-604.6-5.3z" fill="url(#Path_16_)"/><path id="Path_4_" class="st5" d="M39.1 312c23.4-13.9 43.9-22.1 61.7-24.5 26.6-3.6 43.2 16.2 64.5 21.7"/><path id="Path_5_" class="st5" d="M16.8 137.8c23.4-13.9 43.9-22.1 61.7-24.5 26.6-3.6 43.2 16.2 64.5 21.7 0 0 25.2 7.6 61.5-9.7"/><path id="Path_6_" class="st6" d="M302.2 257.6c16.2-13.6 28.8-18.4 37.9-14.6 13.7 5.8 29.4 24 55.8 18.2 26.4-5.8 48.1-17.3 72.2-25.7"/><path id="Path_7_" class="st6" d="M4.7 247.3c20.5-9 39-13.4 55.5-13.3 24.7.3 43 15.7 67.8 19 16.6 2.2 40.5-2.4 71.7-13.8"/><path id="Path_8_" class="st7" d="M200.9 170.4c20.5-9 39-13.4 55.5-13.3 12.9.1 24 4.4 35.2 8.9 10.3 4.1 20.7 8.5 32.6 10 11.3 1.5 25.9-.2 44-5"/><path id="Path_9_" class="st7" d="M542.2 329.3c20.5-9 39-13.4 55.5-13.3 12.9.1 24 4.4 35.2 8.9 10.3 4.1 20.7 8.5 32.6 10 11.3 1.5 25.9-.2 44-5"/><path id="Path_10_" class="st8" d="M451.4 195.8c36.2-12 53.2-18.6 83.3-22.5 25.2-3.3 46.8-1.2 81.5 9.3 27.1 5.5 46.2 3.9 57.4-4.7"/><path id="Path_11_" class="st6" d="M391.9 103.7c20.2-7.2 43.2-10.8 69.1-10.8 38.8 0 47.2 17.5 83.9 17.5"/><path id="Path_12_" class="st8" d="M284.6 317.3s46.3 16.6 70.1 8.5c23.8-8.1 57.8-16.9 90.3-8.5"/><path id="Rectangle_1_" class="st0" d="M0 44h740v444H0z"/></g></g></svg>