<svg version="1.1" id="Layer_1" xmlns="http://www.w3.org/2000/svg" x="0" y="0" viewBox="0 0 65 52" xml:space="preserve"><style>.st0,.st1{fill:none;stroke:#d7d7d7;stroke-width:1.6;stroke-linecap:round}.st1{stroke:#bababa}</style><g id="Page-1"><g id="night-windy-xs" transform="translate(-2 -11)"><g id="Group" transform="translate(2 12)"><path id="Path" class="st0" d="M56.7 22.8H10.4c-4.4 0-7.6-1.7-7.6-5.9 0-5.7 8.4-8 10.6-2.5 2.1 5.3-6.3 6.8-6.6 2.6-.2-2.8 3.1-3 3.8-1"/><path id="Path_1_" class="st0" d="M31.2 27.4H18.9c-4.4 0-7.6 1.7-7.6 5.9 0 5.7 8.4 8 10.6 2.5 2.1-5.3-6.3-6.8-6.6-2.6-.2 2.8 3.1 3 3.8 1"/><path id="Path_2_" class="st1" d="M36.7 14.8h15"/><path id="Path_3_" class="st0" d="M21.5 18.9h15"/><path id="Path_4_" class="st1" d="M27.2 33h30"/><path id="Path_5_" class="st0" d="M61 33h2"/><path id="Path_6_" class="st0" d="M55 14.8h2.1"/></g><path id="Rectangle" fill="none" d="M2 11h65v52H2z"/></g></g></svg>