<?xml version="1.0" encoding="UTF-8"?>
<svg width="187px" height="6px" viewBox="0 0 187 6" version="1.1" xmlns="http://www.w3.org/2000/svg" xmlns:xlink="http://www.w3.org/1999/xlink">
    <!-- Generator: Sketch 64 (93537) - https://sketch.com -->
    <title>squiggly line</title>
    <desc>Created with Sketch.</desc>
    <g id="Page-1" stroke="none" stroke-width="1" fill="none" fill-rule="evenodd" opacity="0.5">
        <path d="M0.5,3.5 C2.43299662,1.56700338 5.56700338,1.56700338 7.5,3.5 C9.43299662,5.43299662 12.5670034,5.43299662 14.5,3.5 C16.4329966,1.56700338 19.5670034,1.56700338 21.5,3.5 C23.4329966,5.43299662 26.5670034,5.43299662 28.5,3.5 C30.4329966,1.56700338 33.5670034,1.56700338 35.5,3.5 C37.4329966,5.43299662 40.5670034,5.43299662 42.5,3.5 C44.4329966,1.56700338 47.5670034,1.56700338 49.5,3.5 C51.4329966,5.43299662 54.5670034,5.43299662 56.5,3.5 C58.4329966,1.56700338 61.5670034,1.56700338 63.5,3.5 C65.4329966,5.43299662 68.5670034,5.43299662 70.5,3.5 C72.4329966,1.56700338 75.5670034,1.56700338 77.5,3.5 C79.4329966,5.43299662 82.5670034,5.43299662 84.5,3.5 C86.4329966,1.56700338 89.5670034,1.56700338 91.5,3.5 C93.4329966,5.43299662 96.5670034,5.43299662 98.5,3.5 C100.432997,1.56700338 103.567003,1.56700338 105.5,3.5 C107.432997,5.43299662 110.567003,5.43299662 112.5,3.5 C114.432997,1.56700338 117.567003,1.56700338 119.5,3.5 C121.432997,5.43299662 124.567003,5.43299662 126.5,3.5 C128.432997,1.56700338 131.567003,1.56700338 133.5,3.5 C135.432997,5.43299662 138.567003,5.43299662 140.5,3.5 C142.432997,1.56700338 145.567003,1.56700338 147.5,3.5 C149.432997,5.43299662 152.567003,5.43299662 154.5,3.5 C156.432997,1.56700338 159.567003,1.56700338 161.5,3.5 C163.432997,5.43299662 166.567003,5.43299662 168.5,3.5 C170.432997,1.56700338 173.567003,1.56700338 175.5,3.5 C177.432997,5.43299662 180.567003,5.43299662 182.5,3.5 L186,0 L186,0" id="squiggly-line" stroke="#FFFFFF"></path>
    </g>
</svg>
