<?xml version="1.0" encoding="utf-8"?>
<!-- Generator: Adobe Illustrator 25.0.1, SVG Export Plug-In . SVG Version: 6.00 Build 0)  -->
<svg version="1.1" id="Layer_1" xmlns="http://www.w3.org/2000/svg" xmlns:xlink="http://www.w3.org/1999/xlink" x="0px" y="0px"
	 viewBox="0 0 80 80" style="enable-background:new 0 0 80 80;" xml:space="preserve">
<style type="text/css">
	.st0{clip-path:url(#SVGID_2_);}
	.st1{fill:none;stroke:#FFFFFF;stroke-miterlimit:10;}
	.st2{fill:none;stroke:#FFFFFF;stroke-miterlimit:10;stroke-dasharray:0.9984,0.9984;}
	.st3{opacity:0.1;clip-path:url(#SVGID_4_);}
	.st4{opacity:0.1;clip-path:url(#SVGID_6_);}
	.st5{opacity:0.1;clip-path:url(#SVGID_8_);}
	.st6{opacity:0.1;clip-path:url(#SVGID_10_);}
</style>
<g>
	<defs>
		<rect id="SVGID_1_" width="80" height="80"/>
	</defs>
	<clipPath id="SVGID_2_">
		<use xlink:href="#SVGID_1_"  style="overflow:visible;"/>
	</clipPath>
	<g class="st0">
		<g>
			<g>
				<line class="st2" x1="-8.1" y1="69.4" x2="81.9" y2="159.4"/>
			</g>
		</g>
		<g>
			<g>
				<line class="st2" x1="-8.1" y1="64.4" x2="81.9" y2="154.4"/>
			</g>
		</g>
		<g>
			<g>
				<line class="st2" x1="-8.1" y1="59.4" x2="81.9" y2="149.4"/>
			</g>
		</g>
		<g>
			<g>
				<line class="st2" x1="-8.1" y1="54.4" x2="81.9" y2="144.4"/>
			</g>
		</g>
		<g>
			<g>
				<line class="st2" x1="-8.1" y1="49.4" x2="81.9" y2="139.4"/>
			</g>
		</g>
		<g>
			<g>
				<line class="st2" x1="-8.1" y1="44.4" x2="81.9" y2="134.4"/>
			</g>
		</g>
		<g>
			<g>
				<line class="st2" x1="-8.1" y1="39.4" x2="81.9" y2="129.4"/>
			</g>
		</g>
		<g>
			<g>
				<line class="st2" x1="-8.1" y1="34.4" x2="81.9" y2="124.4"/>
			</g>
		</g>
		<g>
			<g>
				<line class="st2" x1="-8.1" y1="29.4" x2="81.9" y2="119.4"/>
			</g>
		</g>
		<g>
			<g>
				<line class="st2" x1="-8.1" y1="24.4" x2="81.9" y2="114.4"/>
			</g>
		</g>
		<g>
			<g>
				<line class="st2" x1="-8.1" y1="19.4" x2="81.9" y2="109.4"/>
			</g>
		</g>
		<g>
			<g>
				<line class="st2" x1="-8.1" y1="14.4" x2="81.9" y2="104.4"/>
			</g>
		</g>
		<g>
			<g>
				<line class="st2" x1="-8.1" y1="9.4" x2="81.9" y2="99.4"/>
			</g>
		</g>
		<g>
			<g>
				<line class="st2" x1="-8.1" y1="4.4" x2="81.9" y2="94.4"/>
			</g>
		</g>
		<g>
			<g>
				<line class="st2" x1="-8.1" y1="-0.6" x2="81.9" y2="89.4"/>
			</g>
		</g>
		<g>
			<g>
				<line class="st2" x1="-8.1" y1="-5.6" x2="81.9" y2="84.4"/>
			</g>
		</g>
		<g>
			<g>
				<line class="st2" x1="-8.1" y1="-10.6" x2="81.9" y2="79.4"/>
			</g>
		</g>
		<g>
			<g>
				<line class="st2" x1="-8.1" y1="-15.6" x2="81.9" y2="74.4"/>
			</g>
		</g>
		<g>
			<g>
				<line class="st2" x1="-8.1" y1="-20.6" x2="81.9" y2="69.4"/>
			</g>
		</g>
		<g>
			<g>
				<line class="st2" x1="-8.1" y1="-25.6" x2="81.9" y2="64.4"/>
			</g>
		</g>
		<g>
			<g>
				<line class="st2" x1="-8.1" y1="-30.6" x2="81.9" y2="59.4"/>
			</g>
		</g>
		<g>
			<g>
				<line class="st2" x1="-8.1" y1="-35.6" x2="81.9" y2="54.4"/>
			</g>
		</g>
		<g>
			<g>
				<line class="st2" x1="-8.1" y1="-40.6" x2="81.9" y2="49.4"/>
			</g>
		</g>
		<g>
			<g>
				<line class="st2" x1="-8.1" y1="-45.6" x2="81.9" y2="44.4"/>
			</g>
		</g>
		<g>
			<g>
				<line class="st2" x1="-8.1" y1="-50.6" x2="81.9" y2="39.4"/>
			</g>
		</g>
		<g>
			<g>
				<line class="st2" x1="-8.1" y1="-55.6" x2="81.9" y2="34.4"/>
			</g>
		</g>
		<g>
			<g>
				<line class="st2" x1="-8.1" y1="-60.6" x2="81.9" y2="29.4"/>
			</g>
		</g>
		<g>
			<g>
				<line class="st2" x1="-8.1" y1="-65.6" x2="81.9" y2="24.4"/>
			</g>
		</g>
		<g>
			<g>
				<line class="st2" x1="-8.1" y1="-70.6" x2="81.9" y2="19.4"/>
			</g>
		</g>
		<g>
			<g>
				<line class="st2" x1="-8.1" y1="-75.6" x2="81.9" y2="14.4"/>
			</g>
		</g>
		<g>
			<g>
				<line class="st2" x1="-8.1" y1="-80.6" x2="81.9" y2="9.4"/>
			</g>
		</g>
		<g>
			<g>
				<line class="st2" x1="-8.1" y1="-85.6" x2="81.9" y2="4.4"/>
			</g>
		</g>
	</g>
</g>
</svg>
