<svg version="1.1" id="Layer_1" xmlns="http://www.w3.org/2000/svg" x="0" y="0" viewBox="0 0 360 432" xml:space="preserve"><style>.st6{fill:none;stroke:#d7d7d7;stroke-width:8.5384;stroke-linecap:round}</style><g id="Page-1"><g id="___fog-57-copy" transform="translate(0 -34)"><path id="Rectangle" fill="none" d="M0 34h360v432H0z"/><linearGradient id="Path_10_" gradientUnits="userSpaceOnUse" x1="-500" y1="628.3" x2="-500.01" y2="628.01" gradientTransform="matrix(336.6709 0 0 -148.5719 168520.81 93666.95)"><stop offset=".1" stop-color="#fff" stop-opacity=".6"/><stop offset="1" stop-color="#fff" stop-opacity="0"/></linearGradient><path id="Path" d="M14 421.2v-99.6s4.5-63.7 82.3-45.8c77.8 17.9 62.6 44.7 126.1 16.1S338.6 274 346.7 325c8.1 51 1.3 96.2 1.3 96.2H14z" fill="url(#Path_10_)"/><linearGradient id="Path_11_" gradientUnits="userSpaceOnUse" x1="-499.79" y1="628.33" x2="-499.8" y2="627.96" gradientTransform="matrix(295.7435 0 0 -146.0715 148025.16 92048.3)"><stop offset=".1" stop-color="#fff" stop-opacity=".6"/><stop offset="1" stop-color="#fff" stop-opacity="0"/></linearGradient><path id="Path_1_" d="M64.7 375.3v-85.9s-12.5-63.9 63.2-60c75.7 3.9 84.7 44.9 118.6 27.6s103.3-41.9 108.7-16.2c5.4 25.7 4.4 42.1 4.4 42.1v92.3l-294.9.1z" fill="url(#Path_11_)"/><linearGradient id="Path_12_" gradientUnits="userSpaceOnUse" x1="-499.99" y1="628.29" x2="-500" y2="628" gradientTransform="matrix(334.3213 0 0 -147.4965 167335.97 92892.38)"><stop offset=".1" stop-color="#fff" stop-opacity=".6"/><stop offset="1" stop-color="#fff" stop-opacity="0"/></linearGradient><path id="Path_2_" d="M8.7 323.1v-99.6s7.2-58.8 74.9-46.1c67.7 12.7 70.6 41.7 109.6 26.3s92.6-41.8 122.1-17.2S343 237 343 237v86.1H8.7z" fill="url(#Path_12_)"/><linearGradient id="Path_13_" gradientUnits="userSpaceOnUse" x1="-499.94" y1="628.27" x2="-499.95" y2="627.97" gradientTransform="matrix(322.494 0 0 -144.6002 161420.95 90994.3)"><stop offset=".1" stop-color="#fff" stop-opacity=".6"/><stop offset="1" stop-color="#fff" stop-opacity="0"/></linearGradient><path id="Path_3_" d="M31 241.5v-95.1s-2.7-49.1 37.1-43.8c39.8 5.3 55.7 45.5 91.5 29.7s55.6-41.7 93.9-22.3 67.8 5.1 84.8 7.3c16.9 2.3 15.1 25.2 15.1 33.4s-3.1 89-2.6 96.1L31 241.5z" fill="url(#Path_13_)"/><path id="Path_4_" d="M5.1 323.2c23.4-13.9 43.9-22.1 61.7-24.5 26.6-3.6 43.2 16.2 64.5 21.7" fill="none" stroke="#fff" stroke-width="8.54" stroke-linecap="round"/><path id="Path_5_" class="st6" d="M180.6 300.4c16.2-13.6 28.8-18.4 37.9-14.6 13.7 5.8 29.4 24 55.8 18.2 26.4-5.8 47.2-15.7 72.2-12.4"/><path id="Path_6_" class="st6" d="M15.5 232.3c20.5-9 39-13.4 55.5-13.3 24.7.3 43 15.7 67.8 19 16.6 2.2 40.5-2.4 71.7-13.8"/><path id="Path_7_" d="M7.9 121.8c20.5-9 39-13.4 55.5-13.3 12.9.1 24 4.4 35.2 8.9 10.3 4.1 20.7 8.5 32.6 10 11.3 1.5 25.9-.2 44-5" fill="none" stroke="#f2f2f2" stroke-width="8.54" stroke-linecap="round"/><path id="Path_8_" d="M168.3 172.1c13.9-10.8 28-18.3 42.3-22.5 14.3-4.2 38.8-1.2 73.5 9.3 27.1 5.5 46.2 3.9 57.4-4.7" fill="none" stroke="#f8f8f8" stroke-width="8.54" stroke-linecap="round"/><path id="Path_9_" class="st6" d="M198.9 83.7c10.5-7.2 22.4-10.8 35.8-10.8 20.1 0 24.5 17.5 43.5 17.5"/></g></g></svg>