<?xml version="1.0" encoding="utf-8"?>
<!-- Generator: Adobe Illustrator 25.0.1, SVG Export Plug-In . SVG Version: 6.00 Build 0)  -->
<svg version="1.1" id="Layer_1" xmlns="http://www.w3.org/2000/svg" xmlns:xlink="http://www.w3.org/1999/xlink" x="0px" y="0px"
	 viewBox="0 0 360 432" style="enable-background:new 0 0 360 432;" xml:space="preserve">
<style type="text/css">
	.st0{fill:none;}
	.st1{fill:url(#Path_10_);}
	.st2{fill:url(#Path_11_);}
	.st3{fill:url(#Path_12_);}
	.st4{fill:url(#Path_13_);}
	.st5{fill:none;stroke:#FFFFFF;stroke-width:8.54;stroke-linecap:round;}
	.st6{fill:none;stroke:#D7D7D7;stroke-width:8.5384;stroke-linecap:round;}
	.st7{fill:none;stroke:#F2F2F2;stroke-width:8.54;stroke-linecap:round;}
	.st8{fill:none;stroke:#F8F8F8;stroke-width:8.54;stroke-linecap:round;}
</style>
<g id="Page-1">
	<g id="___fog-57-copy" transform="translate(0 -34)">
		<path id="Rectangle" class="st0" d="M0,34h360v432H0V34z"/>
		
			<linearGradient id="Path_10_" gradientUnits="userSpaceOnUse" x1="-1501.0181" y1="626.0519" x2="-1501.0281" y2="625.762" gradientTransform="matrix(336.6709 0 0 -148.5719 505534.375 93332.9531)">
			<stop  offset="0.1" style="stop-color:#FFFFFF;stop-opacity:0.6"/>
			<stop  offset="1" style="stop-color:#FFFFFF;stop-opacity:0"/>
		</linearGradient>
		<path id="Path" class="st1" d="M14,421.2v-99.6c0,0,4.5-63.7,82.3-45.8c77.8,17.9,62.6,44.7,126.1,16.1S338.6,274,346.7,325
			s1.3,96.2,1.3,96.2H14z"/>
		
			<linearGradient id="Path_11_" gradientUnits="userSpaceOnUse" x1="-1500.3969" y1="626.0435" x2="-1500.4069" y2="625.6735" gradientTransform="matrix(295.7435 0 0 -146.0715 443947.6562 91714.2969)">
			<stop  offset="0.1" style="stop-color:#FFFFFF;stop-opacity:0.6"/>
			<stop  offset="1" style="stop-color:#FFFFFF;stop-opacity:0"/>
		</linearGradient>
		<path id="Path_1_" class="st2" d="M64.7,375.3v-85.9c0,0-12.5-63.9,63.2-60s84.7,44.9,118.6,27.6s103.3-41.9,108.7-16.2
			c5.4,25.7,4.4,42.1,4.4,42.1v92.3L64.7,375.3L64.7,375.3z"/>
		
			<linearGradient id="Path_12_" gradientUnits="userSpaceOnUse" x1="-1500.9833" y1="626.0254" x2="-1500.9933" y2="625.7354" gradientTransform="matrix(334.3213 0 0 -147.4965 501990.5312 92558.3828)">
			<stop  offset="0.1" style="stop-color:#FFFFFF;stop-opacity:0.6"/>
			<stop  offset="1" style="stop-color:#FFFFFF;stop-opacity:0"/>
		</linearGradient>
		<path id="Path_2_" class="st3" d="M8.7,323.1v-99.6c0,0,7.2-58.8,74.9-46.1s70.6,41.7,109.6,26.3s92.6-41.8,122.1-17.2
			S343,237,343,237v86.1H8.7z"/>
		
			<linearGradient id="Path_13_" gradientUnits="userSpaceOnUse" x1="-1500.8232" y1="625.9601" x2="-1500.8333" y2="625.66" gradientTransform="matrix(322.494 0 0 -144.6002 484200.9062 90660.2969)">
			<stop  offset="0.1" style="stop-color:#FFFFFF;stop-opacity:0.6"/>
			<stop  offset="1" style="stop-color:#FFFFFF;stop-opacity:0"/>
		</linearGradient>
		<path id="Path_3_" class="st4" d="M31,241.5v-95.1c0,0-2.7-49.1,37.1-43.8c39.8,5.3,55.7,45.5,91.5,29.7s55.6-41.7,93.9-22.3
			s67.8,5.1,84.8,7.3c16.9,2.3,15.1,25.2,15.1,33.4s-3.1,89-2.6,96.1L31,241.5z"/>
		<path id="Path_4_" class="st5" d="M5.1,323.2c23.4-13.9,43.9-22.1,61.7-24.5c26.6-3.6,43.2,16.2,64.5,21.7"/>
		<path id="Path_5_" class="st6" d="M180.6,300.4c16.2-13.6,28.8-18.4,37.9-14.6c13.7,5.8,29.4,24,55.8,18.2s47.2-15.7,72.2-12.4"/>
		<path id="Path_6_" class="st6" d="M15.5,232.3c20.5-9,39-13.4,55.5-13.3c24.7,0.3,43,15.7,67.8,19c16.6,2.2,40.5-2.4,71.7-13.8"/>
		<path id="Path_7_" class="st7" d="M7.9,121.8c20.5-9,39-13.4,55.5-13.3c12.9,0.1,24,4.4,35.2,8.9c10.3,4.1,20.7,8.5,32.6,10
			c11.3,1.5,25.9-0.2,44-5"/>
		<path id="Path_8_" class="st8" d="M168.3,172.1c13.9-10.8,28-18.3,42.3-22.5s38.8-1.2,73.5,9.3c27.1,5.5,46.2,3.9,57.4-4.7"/>
		<path id="Path_9_" class="st6" d="M198.9,83.7c10.5-7.2,22.4-10.8,35.8-10.8c20.1,0,24.5,17.5,43.5,17.5"/>
	</g>
</g>
</svg>
