<?xml version="1.0" encoding="UTF-8"?>
<svg width="8px" height="23px" viewBox="0 0 8 23" version="1.1" xmlns="http://www.w3.org/2000/svg" xmlns:xlink="http://www.w3.org/1999/xlink">
    <!-- Generator: Sketch 53.2 (72643) - https://sketchapp.com -->
    <title>Group 5 Copy</title>
    <desc>Created with Sketch.</desc>
    <g id="Page-1" stroke="none" stroke-width="1" fill="none" fill-rule="evenodd">
        <g id="1st-site-open-searchfieldactive" transform="translate(-270.000000, -81.000000)" fill="#9DC0E3">
            <g id="Group-5-Copy" transform="translate(270.000000, 81.000000)">
                <path d="M1,16.3541756 L1,3 C1,1.34314575 2.34314575,3.04359188e-16 4,0 C5.65685425,-3.04359188e-16 7,1.34314575 7,3 L7,16.3541756 C7.62236341,17.0593088 8,17.9855535 8,19 C8,21.209139 6.209139,23 4,23 C1.790861,23 0,21.209139 0,19 C0,17.9855535 0.377636589,17.0593088 1,16.3541756 Z M3,17.2675644 C2.40219863,17.6133738 2,18.2597176 2,19 C2,20.1045695 2.8954305,21 4,21 C5.1045695,21 6,20.1045695 6,19 C6,18.2597176 5.59780137,17.6133738 5,17.2675644 L5,14.5722983 C5,14.0200136 4.55228475,13.5722983 4,13.5722983 C3.44771525,13.5722983 3,14.0200136 3,14.5722983 L3,17.2675644 Z" id="Combined-Shape"></path>
            </g>
        </g>
    </g>
</svg>