<?xml version="1.0" encoding="utf-8"?>
<!-- Generator: Adobe Illustrator 25.0.1, SVG Export Plug-In . SVG Version: 6.00 Build 0)  -->
<svg version="1.1" id="Layer_1" xmlns="http://www.w3.org/2000/svg" xmlns:xlink="http://www.w3.org/1999/xlink" x="0px" y="0px"
	 viewBox="0 0 174 50.5" width="160" height="46" style="enable-background:new 0 0 174 50.5;" xml:space="preserve">
<style type="text/css">
	.st0{opacity:0.2;enable-background:new    ;}
	.st1{fill:#FFFFF8;}
	.st2{clip-path:url(#SVGID_2_);}
	.st3{fill:#EEC153;}
	.st4{fill:#FCDC8D;}
</style>
<g>
	<path class="st0" d="M57.3,47.3C2.2,47.3-11.2,34,8.7,24.7s63,8.2,72.9,0s16.9-17.2,27.3-8.9S112.3,47.3,57.3,47.3z"/>
	<g>
		<path class="st1" d="M34.4,34.7l-5.5,15.6h-5.3l-3-8.4l-3.1,8.4h-5.3L6.8,34.7H12l3.2,9.4l3.3-9.4h4.7l3.3,9.5l3.3-9.5H34.4z"/>
		<path class="st1" d="M51.5,43.9H40.2c0.5,1.5,1.8,2.5,3.8,2.5c1.5,0,2.5-0.4,3.5-1.3l2.9,3c-1.5,1.6-3.6,2.5-6.6,2.5
			c-5.5,0-9.1-3.4-9.1-8c0-4.7,3.6-8,8.5-8c4.6,0,8.3,3,8.3,8C51.6,42.9,51.6,43.5,51.5,43.9z M40.1,41h6.4
			c-0.3-1.6-1.5-2.7-3.2-2.7C41.6,38.3,40.5,39.4,40.1,41z"/>
		<path class="st1" d="M68.3,41.7v8.6h-5.1v-2c-0.8,1.5-2.3,2.3-4.6,2.3c-3.7,0-5.8-2.1-5.8-4.8c0-2.9,2.1-4.7,6.9-4.7h3.1
			c-0.1-1.5-1.1-2.5-3.3-2.5c-1.5,0-3.2,0.5-4.2,1.3l-1.8-3.7c1.8-1.1,4.4-1.8,6.9-1.8C65.3,34.5,68.3,36.7,68.3,41.7z M62.8,45.3
			v-1.3h-2.4c-1.7,0-2.4,0.7-2.4,1.5c0,1,0.8,1.5,2,1.5C61.3,47.1,62.4,46.5,62.8,45.3z"/>
		<path class="st1" d="M82.4,49.6c-1,0.6-2.4,0.9-3.8,0.9c-4,0-6.3-1.9-6.3-5.9v-5.3H70v-4.1h2.3v-4h5.5v4h3.5v4.1h-3.5v5.2
			c0,1.1,0.7,1.8,1.6,1.8c0.6,0,1.2-0.2,1.6-0.5L82.4,49.6z"/>
		<path class="st1" d="M101.1,41.4v8.9h-5.5v-8c0-2.2-1-3.2-2.6-3.2c-1.7,0-3.1,1.1-3.1,3.6v7.6h-5.5V28.9H90v7.2
			c1.2-1.1,2.9-1.7,4.7-1.7C98.3,34.5,101.1,36.6,101.1,41.4z"/>
		<path class="st1" d="M120.5,43.9h-11.3c0.5,1.5,1.8,2.5,3.8,2.5c1.5,0,2.5-0.4,3.5-1.3l2.9,3c-1.5,1.6-3.6,2.5-6.6,2.5
			c-5.5,0-9.1-3.4-9.1-8c0-4.7,3.6-8,8.5-8c4.6,0,8.3,3,8.3,8C120.6,42.9,120.5,43.5,120.5,43.9z M109.1,41h6.4
			c-0.3-1.6-1.5-2.7-3.2-2.7C110.6,38.3,109.4,39.4,109.1,41z"/>
		<path class="st1" d="M133.5,34.5v4.9c-0.5-0.1-0.9-0.1-1.2-0.1c-2.2,0-3.7,1.1-3.7,3.8v7.2h-5.5V34.7h5.2v1.8
			C129.4,35.2,131.2,34.5,133.5,34.5z"/>
		<path class="st1" d="M142.9,35.2h3.7v4.1h-3.5v10.9h-5.5V39.4h-2.3v-4.1h2.3v-0.4c0-3.7,2.3-6.2,6.5-6.2c1.3,0,2.8,0.3,3.6,0.8
			l-1.3,3.8c-0.5-0.3-1.1-0.5-1.6-0.5c-1.1,0-1.8,0.7-1.8,2L142.9,35.2L142.9,35.2z"/>
		<path class="st1" d="M165,34.7v15.6h-5.2v-1.6c-1.1,1.2-2.9,1.9-4.6,1.9c-3.8,0-6.6-2.2-6.6-7.1v-8.7h5.5v7.8c0,2.4,1,3.3,2.6,3.3
			s3-1.1,3-3.6v-7.5h5.4L165,34.7L165,34.7z"/>
		<path class="st1" d="M168.5,28.9h5.5v21.3h-5.5V28.9z"/>
	</g>
	<g>
		<g>
			<g>
				<defs>
					<rect id="SVGID_1_" x="-6.4" y="-6" width="99.4" height="33.6"/>
				</defs>
				<clipPath id="SVGID_2_">
					<use xlink:href="#SVGID_1_"  style="overflow:visible;"/>
				</clipPath>
				<g class="st2">
					<g>
						
							<image style="overflow:visible;opacity:0.2;enable-background:new    ;" width="65" height="66" xlink:href="7CAE7815B26E31B6.png"  transform="matrix(0.9415 0 0 0.9415 6.6303 -6.4141)">
						</image>
						<g>
							<circle class="st3" cx="38.3" cy="21.9" r="21.8"/>
						</g>
					</g>
					<g>
						
							<image style="overflow:visible;opacity:0.2;enable-background:new    ;" width="53" height="53" xlink:href="7CAE7815B26E31BA.png"  transform="matrix(0.9382 0 0 0.9382 12.3676 0.2721)">
						</image>
						<g>
							<circle class="st4" cx="38.3" cy="21.9" r="15.8"/>
						</g>
					</g>
				</g>
			</g>
		</g>
	</g>
	<path class="st1" d="M60.4,16.5c9.9-0.6,21.9-0.9,30.4,2.3s-7.6,2.1-17.5,3.1c-9.8,1-22.9,2.4-26.2-4.2
		C45.9,15.2,50.5,17.1,60.4,16.5z"/>
	<path class="st1" d="M10.6,7.3c0,0,8.5-3.4,15.2-1.6s12.3,3.4,4.6,4c-7.6,0.6-17.6,6.5-20.3,2.9C9.2,11.2,7.1,8.8,10.6,7.3z"/>
</g>
</svg>
